<?xml version="1.0" standalone="no"?>
<!DOCTYPE svg PUBLIC "-//W3C//DTD SVG 20010904//EN"
 "http://www.w3.org/TR/2001/REC-SVG-20010904/DTD/svg10.dtd">
<svg version="1.0" xmlns="http://www.w3.org/2000/svg"
 width="640.000000pt" height="640.000000pt" viewBox="0 0 640.000000 640.000000"
 preserveAspectRatio="xMidYMid meet">
<metadata>
Created by potrace 1.14, written by Peter Selinger 2001-2017
</metadata>
<g transform="translate(0.000000,640.000000) scale(0.100000,-0.100000)"
fill="#000000" stroke="none">
<path d="M2626 6299 c-57 -23 -69 -31 -127 -84 -104 -94 -166 -190 -210 -328
-29 -90 -35 -128 -43 -273 -2 -39 -11 -87 -19 -106 -9 -20 -13 -38 -11 -41 9
-9 -24 -27 -40 -21 -9 3 -34 36 -56 73 -61 101 -146 185 -211 206 -50 16 -95
34 -144 56 -59 27 -168 41 -272 35 -58 -3 -113 -2 -128 4 -13 5 -30 7 -37 4
-19 -7 -84 -114 -93 -149 -4 -16 -9 -39 -12 -50 -3 -11 -6 -66 -8 -121 -3 -89
7 -178 31 -254 2 -8 9 -40 15 -70 7 -30 27 -113 46 -185 19 -71 37 -139 40
-151 9 -39 -52 -36 -126 5 -29 16 -76 31 -114 37 -16 2 -32 6 -37 9 -26 16
-184 24 -250 12 -65 -11 -121 -36 -162 -72 -23 -19 -45 -35 -49 -35 -13 0 -20
-34 -25 -134 -3 -60 -1 -124 6 -156 l12 -55 -43 -70 c-84 -137 -81 -195 17
-378 24 -44 174 -196 268 -271 47 -38 86 -75 86 -81 0 -9 -16 -22 -79 -60 -9
-6 -28 -18 -42 -28 -26 -17 -88 -21 -224 -13 -92 5 -232 -54 -383 -161 -77
-55 -120 -106 -167 -196 -31 -62 -33 -70 -21 -90 8 -12 20 -42 27 -67 8 -25
27 -60 44 -79 66 -75 145 -151 157 -151 27 -1 71 -59 70 -91 -1 -39 32 -92 86
-141 42 -38 200 -123 244 -132 12 -3 43 -9 68 -15 25 -6 59 -13 75 -17 31 -7
55 -21 55 -33 0 -3 -14 -22 -30 -41 -28 -32 -114 -157 -152 -220 -29 -49 -88
-208 -104 -281 -19 -88 -19 -137 1 -220 14 -63 27 -79 143 -182 25 -23 137
-50 177 -43 42 8 63 13 114 24 27 7 53 7 68 1 14 -5 45 -12 71 -15 25 -3 50
-8 54 -10 27 -17 237 3 273 24 6 4 15 7 20 8 6 1 21 4 35 7 14 3 43 8 65 13
22 4 57 15 79 25 72 32 82 8 37 -86 -50 -102 -71 -153 -71 -172 0 -10 -13 -65
-29 -123 -31 -111 -36 -157 -34 -336 2 -93 6 -119 26 -165 13 -30 23 -64 22
-77 -2 -27 13 -41 52 -48 15 -3 35 -12 45 -21 13 -12 41 -15 132 -14 l115 1
27 -52 c15 -29 51 -81 80 -115 53 -60 55 -61 82 -47 16 7 57 16 93 20 54 5 76
13 147 57 90 57 129 91 241 216 80 89 131 155 131 170 0 15 50 50 63 45 16 -6
77 -107 77 -127 0 -14 105 -197 119 -207 4 -3 29 -34 56 -70 71 -94 192 -206
231 -215 11 -3 44 -12 74 -20 69 -19 94 -19 110 0 7 8 32 24 56 34 74 33 153
131 188 234 22 64 48 105 76 117 30 13 108 85 171 160 75 88 97 110 112 110 8
0 34 -15 58 -33 24 -18 64 -44 89 -58 25 -13 59 -34 76 -46 17 -13 33 -23 36
-23 3 0 48 -20 101 -45 142 -66 220 -75 267 -30 33 32 88 139 95 186 3 18 8
45 10 59 14 80 -1 286 -24 314 -5 6 -10 16 -11 21 -1 6 -8 25 -16 44 -47 113
-55 230 -23 320 15 40 18 66 13 100 -15 101 -23 130 -51 171 -27 41 -28 53 -8
70 13 10 24 11 56 1 93 -28 358 -33 411 -8 32 15 67 24 129 32 45 6 100 33
181 88 92 62 109 96 114 226 2 77 1 87 -22 114 -13 15 -24 34 -24 40 0 21 -33
73 -82 128 -62 70 -92 124 -75 137 16 12 48 19 122 27 103 11 185 42 265 99
61 43 86 69 100 104 6 14 29 31 57 43 90 38 169 79 191 99 12 11 26 20 32 20
5 0 10 5 10 10 0 6 6 10 14 10 15 0 76 67 76 83 0 5 8 21 18 35 33 49 15 93
-83 201 -65 70 -147 128 -275 192 -66 33 -120 65 -120 70 0 10 51 34 80 37 3
0 19 6 35 12 17 7 37 13 45 15 8 2 47 14 85 28 39 14 99 30 135 37 36 7 74 17
85 22 38 20 105 96 105 118 0 13 9 38 21 56 l20 34 -33 42 c-18 23 -48 55 -65
71 -40 36 -230 155 -307 193 -31 15 -56 30 -56 34 0 4 -18 10 -39 14 -46 7
-57 20 -43 49 83 180 85 186 87 279 l1 68 -59 55 c-53 51 -153 110 -218 129
-62 18 -178 46 -219 53 -62 9 -293 7 -362 -5 -31 -5 -62 -6 -69 -2 -17 11 4
71 80 230 35 72 36 79 36 185 0 161 -24 231 -110 321 l-64 69 -113 -1 c-121
-1 -163 -7 -218 -31 -108 -46 -101 -47 -165 12 -56 52 -58 53 -89 40 -40 -17
-204 -25 -215 -11 -5 6 -12 36 -17 66 -4 30 -8 57 -9 60 -1 3 -5 28 -9 55 -29
188 -109 341 -198 381 -24 10 -45 21 -48 24 -30 37 -164 -9 -295 -102 -55 -40
-103 -77 -108 -84 -4 -7 -31 -41 -61 -76 -65 -77 -106 -147 -113 -190 -6 -43
-29 -79 -47 -72 -7 3 -19 17 -27 32 -32 62 -94 162 -101 162 -4 0 -35 45 -68
100 -129 209 -296 305 -434 249z"/>
</g>
</svg>
